# xmcd
#
# Track frame offsets: 
#        150
#        22005
#        41089
#        60042
#        79133
#        98220
#        118709
#        135622
#        154542
#        173231
#        188742
#        208397
#        224252
#
# Disc length: 3233 seconds
#
# Revision: 2
# Processed by: cddbd v1.5.2PL0 Copyright (c) Steve Scherf et al.
# Submitted via: ExactAudioCopy v1.0b5
#
DISCID=b10c9f0d
DTITLE=羅文 - 羅文精品十三
DYEAR=1989
DGENRE=Pop
TTITLE0=驪歌
TTITLE1=可否等一會
TTITLE2=在我生命裡
TTITLE3=把握
TTITLE4=幾許風雨
TTITLE5=同途萬里人(電視片集“絲綢之路”主題曲)
TTITLE6=我冷傲，但我是暖流
TTITLE7=落葉季節
TTITLE8=紅塵夢
TTITLE9=紋身的獵人
TTITLE10=塵緣
TTITLE11=朋友一個
TTITLE12=我始終是我
EXTD=
EXTT0=
EXTT1=
EXTT2=
EXTT3=
EXTT4=
EXTT5=
EXTT6=
EXTT7=
EXTT8=
EXTT9=
EXTT10=
EXTT11=
EXTT12=
PLAYORDER=
